<?xml version="1.0" encoding="utf-8"?>
<!-- Generator: Adobe Illustrator 22.0.1, SVG Export Plug-In . SVG Version: 6.00 Build 0)  -->
<svg version="1.1" id="Layer_1" xmlns="http://www.w3.org/2000/svg" xmlns:xlink="http://www.w3.org/1999/xlink" x="0px" y="0px"
	 viewBox="0 0 500 500" style="enable-background:new 0 0 500 500;" xml:space="preserve">
<g>
	<path d="M124,421.4c-24.4-19-36.6-45.9-36.6-80.6c0-64.5,44.2-102.6,132.6-114.3c21-3.4,41.8-6.1,62.3-8.1
		c13.2-1.9,24.1-3.8,32.6-5.5c8.5-1.7,16.2-4,23.1-7c10.7-4.9,16.6-17.8,17.6-38.8c0-23.9-7.5-42.6-22.3-56
		C318.3,97.7,294.7,91,262.5,91c-32.2,0-57.5,6.4-75.8,19c-18.3,12.7-29.4,34.4-33.3,65.2h-48.4c3.4-43,19.4-74.6,48-94.9
		C181.5,60.1,218,50,262.5,50c43,0,77.2,9.3,102.6,27.8c25.4,18.6,38.1,48.8,38.1,90.8v205.1c0,21.5,3.2,43.5,9.5,65.9h-46.9
		c-4.4-15.1-7.1-36.1-8.1-63c-12.2,21-31.5,38.5-57.9,52.4c-26.4,13.9-54.7,20.9-85,20.9C178.7,450,148.4,440.5,124,421.4z
		 M315.2,381.5c26.4-18.3,39.8-45.3,40.3-81v-59.3c-16.6,6.4-33.5,11-50.6,13.9c-17.1,2.9-37.6,5.4-61.5,7.3
		c-70.3,5.4-105.5,31.8-105.5,79.1c0,21.5,7.9,38.1,23.8,49.8c15.9,11.7,35,17.6,57.5,17.6C256.8,409,288.8,399.8,315.2,381.5z"/>
</g>
</svg>
