<?xml version="1.0" encoding="utf-8"?>
<!-- Generator: Adobe Illustrator 22.0.1, SVG Export Plug-In . SVG Version: 6.00 Build 0)  -->
<svg version="1.1" id="Layer_1" xmlns="http://www.w3.org/2000/svg" xmlns:xlink="http://www.w3.org/1999/xlink" x="0px" y="0px"
	 viewBox="0 0 500 500" style="enable-background:new 0 0 500 500;" xml:space="preserve">
<g>
	<path d="M79.3,420.3c-25.6-19.3-38.5-46-38.5-80.2c0-30.8,9.3-55.3,27.8-73.6c18.6-18.3,49.8-31.6,93.8-39.9
		c55.7-9.8,92.1-17.3,109.2-22.7c10.7-2.9,25.9-10,45.4-21.2c0-19-4.4-32.7-13.2-41c-8.8-8.3-23.7-12.5-44.7-12.5
		c-25.4,0-44.2,3.8-56.4,11.4c-12.2,7.6-21.2,21.1-27.1,40.7L53.3,169.4c8.3-44.4,28-75.3,59-92.7c31-17.3,74.6-26,130.8-26
		c43.5,0,79.5,3.7,108.1,11s50.8,21,66.7,41c15.9,20,23.8,48.1,23.8,84.3v175.8c0,17.1,1.1,30.5,3.3,40.3c2.2,9.8,7,22.2,14.3,37.4
		H338.3c-4.9-9.3-8.2-17-9.9-23.1c-1.7-6.1-3.3-14.8-4.8-26c-17.6,19.5-38.1,34.1-61.5,43.6c-23.4,9.5-51.5,14.3-84.3,14.3
		C137.8,449.3,104.9,439.6,79.3,420.3z M278.2,361.4c16.6-9.8,27.3-22.7,32.2-38.8c2.9-7.8,4.8-15.9,5.5-24.2
		c0.7-8.3,1.1-22.2,1.1-41.8c-20.5,7.3-44.5,13.7-71.8,19c-25.4,5.9-44.3,12.7-56.8,20.5c-12.5,7.8-18.7,19.5-18.7,35.2
		c0,13.7,4.8,24.5,14.3,32.6c9.5,8.1,22.6,12.1,39.2,12.1C243.3,376,261.6,371.1,278.2,361.4z"/>
</g>
</svg>
