<?xml version="1.0" encoding="utf-8"?>
<!-- Generator: Adobe Illustrator 22.0.1, SVG Export Plug-In . SVG Version: 6.00 Build 0)  -->
<svg version="1.1" id="Layer_1" xmlns="http://www.w3.org/2000/svg" xmlns:xlink="http://www.w3.org/1999/xlink" x="0px" y="0px"
	 viewBox="0 0 500 500" style="enable-background:new 0 0 500 500;" xml:space="preserve">
<g>
	<path d="M75.3,420.3c-25.6-19.3-38.5-46.3-38.5-81c0-30.3,9.2-54.6,27.5-72.9s49.5-31.6,93.4-39.9c52.3-9.8,88.2-17.3,107.7-22.7
		c10.7-2.9,26.9-9.5,48.4-19.8c0-18.6-4.2-31.9-12.5-39.9c-8.3-8.1-22.5-12.1-42.5-12.1c-24.4,0-42.6,3.7-54.6,11
		c-12,7.3-20.6,20.3-26,38.8L49.3,168.7C58,124.2,77.9,93.5,109,76.4c31-17.1,75.3-25.6,133-25.6c44.9,0,82.1,3.7,111.4,11
		s52,21.1,68.1,41.4c16.1,20.3,24.2,49,24.2,86.1v172.2c0,17.6,1.1,31.4,3.3,41.4c2.2,10,7,22.6,14.3,37.7H335.7
		c-4.9-9.3-8.2-16.7-9.9-22.3c-1.7-5.6-3.5-14.3-5.5-26c-18.1,19.5-38.6,34-61.5,43.2c-23,9.3-51,13.9-84.3,13.9
		C134,449.3,100.9,439.6,75.3,420.3z M274.9,359.5c15.6-9,26.1-20.6,31.5-34.8c2.9-7.8,4.9-16.2,5.9-25.3c1-9,1.5-23.1,1.5-42.1
		c-15.6,5.9-38.3,12.5-68.1,19.8c-24.9,5.9-43.4,12.6-55.3,20.1c-12,7.6-17.9,18.7-17.9,33.3c0,12.7,4.6,23,13.9,30.8
		c9.3,7.8,21.7,11.7,37.4,11.7C242.2,373.1,259.3,368.6,274.9,359.5z"/>
</g>
</svg>
