<?xml version="1.0" encoding="utf-8"?>
<!-- Generator: Adobe Illustrator 22.0.1, SVG Export Plug-In . SVG Version: 6.00 Build 0)  -->
<svg version="1.1" id="Layer_1" xmlns="http://www.w3.org/2000/svg" xmlns:xlink="http://www.w3.org/1999/xlink" x="0px" y="0px"
	 viewBox="0 0 500 500" style="enable-background:new 0 0 500 500;" xml:space="preserve">
<g>
	<path d="M71.2,420c-25.9-19.5-38.8-46.4-38.8-80.6c0-30.3,8.9-54.6,26.7-72.9c17.8-18.3,48.7-31.6,92.7-39.9
		c49.3-9.3,85.2-17.1,107.7-23.4c10.3-2.4,27.1-8.3,50.6-17.6c0-18.1-3.9-30.9-11.7-38.5c-7.8-7.6-21.2-11.4-40.3-11.4
		c-23.9,0-41.5,3.4-52.8,10.3c-11.2,6.8-19.8,19-25.6,36.6L44.1,167.9c9.3-44.4,29.5-75.1,60.8-91.9c31.3-16.9,76.2-25.3,134.8-25.3
		c46.4,0,84.5,3.7,114.3,11c29.8,7.3,53,21.2,69.6,41.8c16.6,20.5,24.9,49.6,24.9,87.2v170c0,17.6,1.2,31.5,3.7,41.8
		c2.4,10.3,7.6,23,15.4,38.1H332.8c-4.9-9.8-8.2-17.2-9.9-22.3c-1.7-5.1-3.5-13.3-5.5-24.5c-19,19-39.9,33.1-62.6,42.1
		c-22.7,9-50.7,13.6-83.9,13.6C130.3,449.3,97.1,439.5,71.2,420z M270.9,357.7c14.9-8.3,25.3-18.6,31.1-30.8
		c3.4-7.8,5.6-16.2,6.6-25.3c1-9,1.5-23.3,1.5-42.9c-15.6,5.4-37.1,11.7-64.5,19c-24.4,6.4-42.3,13.1-53.5,20.1
		c-11.2,7.1-16.9,17.7-16.9,31.9c0,12.2,4.3,22,12.8,29.3c8.5,7.3,20.4,11,35.5,11C240.2,370.2,256,366,270.9,357.7z"/>
</g>
</svg>
