<?xml version="1.0" encoding="utf-8"?>
<!-- Generator: Adobe Illustrator 22.0.1, SVG Export Plug-In . SVG Version: 6.00 Build 0)  -->
<svg version="1.1" id="Layer_1" xmlns="http://www.w3.org/2000/svg" xmlns:xlink="http://www.w3.org/1999/xlink" x="0px" y="0px"
	 viewBox="0 0 500 500" style="enable-background:new 0 0 500 500;" xml:space="preserve">
<g>
	<path d="M120,421.4c-24.7-19-37-45.9-37-80.6c0-64,43.7-102.1,131.1-114.3l57.9-8.1c18.6-2.4,31.4-4.4,38.5-5.9
		c7.1-1.5,14.3-3.9,21.6-7.3c6.3-2.4,10.9-6.8,13.6-13.2c2.7-6.3,4.8-14.2,6.2-23.4c0-49.3-30-74-90.1-74c-31.8,0-56.4,6.1-74,18.3
		c-17.6,12.2-28.6,33.2-33,63l-54.9-1.5c3.9-43,20.1-74.5,48.7-94.5c28.6-20,65.8-30,111.7-30c97.2,0,145.8,40.1,145.8,120.2v202.9
		c0,23.4,3.7,45.7,11,66.7h-54.2c-4.4-15.1-7.1-35.6-8.1-61.5c-12.7,21-32.1,38.2-58.2,51.7c-26.1,13.4-54.6,20.1-85.4,20.1
		C175,450,144.6,440.5,120,421.4z M311.5,379.3c25.9-17.8,39.1-43.3,39.6-76.6c0.5-13.2,0.7-33.2,0.7-60.1
		c-16.1,6.4-32.5,10.9-49.1,13.6c-16.6,2.7-36.4,5-59.3,7c-68.4,6.4-102.6,32.2-102.6,77.7c0,21,7.6,37.1,22.7,48.4
		c15.1,11.2,33.7,16.9,55.7,16.9C254.9,406.1,285.6,397.1,311.5,379.3z"/>
</g>
</svg>
