<?xml version="1.0" encoding="utf-8"?>
<!-- Generator: Adobe Illustrator 22.0.1, SVG Export Plug-In . SVG Version: 6.00 Build 0)  -->
<svg version="1.1" id="Layer_1" xmlns="http://www.w3.org/2000/svg" xmlns:xlink="http://www.w3.org/1999/xlink" x="0px" y="0px"
	 viewBox="0 0 500 500" style="enable-background:new 0 0 500 500;" xml:space="preserve">
<g>
	<path d="M115.9,421.4c-24.7-19-37-46.2-37-81.3c0-63.5,43.5-101.3,130.4-113.6c30.8-4.4,49.6-7.1,56.4-8.1
		c14.2-1.9,26-3.9,35.5-5.9c9.5-1.9,17.7-4.4,24.5-7.3c6.3-2.4,11-6.5,13.9-12.1c2.9-5.6,5.9-13.3,8.8-23.1
		c0-48.4-29.1-72.5-87.2-72.5c-30.8,0-54.8,6-72.2,18c-17.3,12-28,32.4-31.9,61.2l-61.5-2.9c4.4-43,21-74.4,49.8-94.1
		C174.4,59.9,212.3,50,259.2,50c46.9,0,83.8,9.4,110.6,28.2c26.9,18.8,40.3,50.2,40.3,94.1v199.3c0,25.4,3.7,48.1,11,68.1h-60.8
		c-3.9-13.2-6.8-33.5-8.8-60.8c-13.2,21-32.7,38.1-58.6,51.3c-25.9,13.2-54.2,19.8-85,19.8C171.2,450,140.6,440.5,115.9,421.4z
		 M308.2,377.5c24.9-17.1,37.8-41.3,38.8-72.5c1-26.4,1.5-46.9,1.5-61.5c-15.1,6.4-30.5,10.9-46.2,13.6c-15.6,2.7-35.2,5.3-58.6,7.7
		c-66.9,6.4-100.4,31.5-100.4,75.5c0,20,7.3,35.5,22,46.5c14.7,11,32.7,16.5,54.2,16.5C253.8,403.1,283.3,394.6,308.2,377.5z"/>
</g>
</svg>
