<?xml version="1.0" encoding="utf-8"?>
<!-- Generator: Adobe Illustrator 22.1.0, SVG Export Plug-In . SVG Version: 6.00 Build 0)  -->
<svg version="1.1" id="Layer_1" xmlns="http://www.w3.org/2000/svg" xmlns:xlink="http://www.w3.org/1999/xlink" x="0px" y="0px"
	 viewBox="0 0 1051.6 227.4" style="enable-background:new 0 0 1051.6 227.4;" xml:space="preserve">
<g>
	<path d="M134.9,157V49h14.4v44.9h58.9V49h14.4v108h-14.4v-51.3h-58.9V157H134.9z"/>
	<path d="M240.9,153.3c-5.1-3.9-7.6-9.5-7.6-16.6c0-13,8.9-20.7,26.7-23.2c6.3-0.9,10.1-1.4,11.6-1.6c2.9-0.4,5.3-0.8,7.3-1.2
		c1.9-0.4,3.6-0.9,5-1.5c1.3-0.5,2.2-1.3,2.9-2.5c0.6-1.1,1.2-2.7,1.8-4.7c0-9.9-6-14.8-17.9-14.8c-6.3,0-11.2,1.2-14.8,3.7
		c-3.6,2.5-5.7,6.6-6.5,12.5l-12.6-0.6c0.9-8.8,4.3-15.2,10.2-19.3c5.9-4,13.6-6.1,23.2-6.1s17.1,1.9,22.6,5.8
		c5.5,3.9,8.2,10.3,8.2,19.3v40.8c0,5.2,0.8,9.9,2.2,14h-12.5c-0.8-2.7-1.4-6.8-1.8-12.5c-2.7,4.3-6.7,7.8-12,10.5
		c-5.3,2.7-11.1,4.1-17.4,4.1C252.2,159.1,245.9,157.2,240.9,153.3z M280.3,144.3c5.1-3.5,7.7-8.4,8-14.9c0.2-5.4,0.3-9.6,0.3-12.6
		c-3.1,1.3-6.3,2.2-9.4,2.8c-3.2,0.6-7.2,1.1-12,1.6c-13.7,1.3-20.6,6.5-20.6,15.5c0,4.1,1.5,7.3,4.5,9.5s6.7,3.4,11.1,3.4
		C269.1,149.5,275.2,147.8,280.3,144.3z"/>
	<path d="M315.1,79.3h12.3V91h0.3c2.6-4.4,6-7.8,10.3-10.1c4.2-2.3,9-3.5,14.2-3.5c6.5,0,11.4,1.3,14.9,3.8
		c3.4,2.5,6.1,6.1,8.1,10.8c5.6-9.7,14.1-14.5,25.6-14.5c9.4,0,15.8,2.7,19.4,8.2c3.5,5.5,5.2,12.9,5.2,22.4v49h-12.8v-52
		c0-5.5-1.2-9.7-3.5-12.5c-2.4-2.8-6.3-4.3-11.8-4.3c-3.2,0-6.1,0.7-8.8,2c-2.7,1.4-5.1,3.3-7.1,5.9c-1.7,2.1-2.9,4.9-3.7,8.5
		s-1.1,7.2-1.1,10.8V157h-12.8v-51.7c0-5.6-1.2-9.8-3.5-12.8c-2.3-2.9-6.3-4.4-11.9-4.4c-3.2,0-6.1,0.7-8.8,2
		c-2.7,1.4-5.1,3.3-7.1,5.9c-1.7,2.1-2.9,4.9-3.7,8.5s-1.1,7.3-1.1,11V157h-12.8V79.3z"/>
	<path d="M463,155.1c-4.9-2.7-8.7-6.5-11.4-11.4h-0.3V157H439V49h12.8v41.9c2.8-4.4,6.6-7.8,11.5-10.1c4.8-2.3,10-3.5,15.4-3.5
		c7.4,0,13.7,1.8,18.8,5.4c5.1,3.6,9,8.5,11.6,14.7c2.6,6.2,3.9,13.1,3.9,20.7c0,12.3-2.9,22.2-8.6,29.8c-5.8,7.6-14.4,11.3-26,11.3
		C473,159.1,467.9,157.8,463,155.1z M493,141c4.4-5,6.6-12,6.8-21c0.3-9.4-1.6-17.1-5.8-23.1c-4.2-6-10.2-9-18.2-9
		c-4.8,0-9,1.3-12.7,4c-3.7,2.7-6.5,6.3-8.4,10.8c-2,4.6-2.9,9.6-2.9,15.2c0,9.1,2.1,16.5,6.4,22.1c4.2,5.7,10.1,8.5,17.6,8.5
		C482.8,148.5,488.6,146,493,141z"/>
	<path d="M530.4,151.3c-4.3-5.1-6.5-12.1-6.5-21.1V79.3h12.8v49.5c0,6.5,1.4,11.4,4.3,14.6c2.9,3.3,7.5,4.9,13.8,4.9
		c6.7,0,12-2.5,15.8-7.5c3.8-5,5.8-11.7,5.8-20.1V79.3h12.8V157h-12.3v-11.1c-3.5,4.1-7.2,7.3-10.9,9.6c-3.8,2.3-8.7,3.5-14.7,3.5
		C541.7,159,534.7,156.4,530.4,151.3z"/>
	<path d="M603.4,79.3h12.3v14.2h0.3c1.9-4.7,4.1-8.2,6.8-10.6c2.6-2.4,5.8-4,9.6-4.8c1.7-0.3,3.5-0.5,5.4-0.5c1,0,2.7,0.1,5.1,0.3
		l-1.7,11.8c-0.7-0.1-1.8-0.1-3.2-0.1c-2.6,0-4.9,0.3-6.8,0.9c-4.6,1.3-8.2,4.1-10.6,8.2c-3,5.1-4.5,12.5-4.5,22.2v36h-12.8V79.3z"
		/>
	<path d="M664.5,185.5c-5.2-2.2-9-5.2-11.5-8.8c-2.5-3.6-3.8-7.5-3.8-11.5l12.9,0.6c1.2,4.9,3.6,8.3,7.3,10.2
		c3.6,1.9,8.3,2.9,14,2.9c9.7,0,16.2-2.8,19.6-8.5c3.4-5.7,5.1-13.4,5.1-23.2v-2.9c-2.8,4.4-6.6,7.8-11.4,10.3
		c-4.8,2.5-10,3.7-15.6,3.7c-7.4,0-13.7-1.8-18.8-5.6c-5.2-3.7-9-8.6-11.5-14.8c-2.6-6.1-3.8-13-3.8-20.5c0-12.1,2.9-21.8,8.6-29.2
		c5.7-7.4,14.4-11,25.9-11c5.4,0,10.6,1.3,15.5,4c5,2.7,8.7,6.5,11.3,11.2h0.3V79.3H721v70.8c0.1,12-2.7,21.4-8.2,28.4
		c-5.6,6.9-15.4,10.3-29.2,10.3C676,188.8,669.6,187.7,664.5,185.5z M697,144c3.6-2.6,6.5-6.2,8.4-10.7c2-4.5,2.9-9.6,2.9-15.1
		c0-9-2.2-16.3-6.5-22c-4.3-5.6-10.2-8.5-17.7-8.5c-7.1,0-12.9,2.5-17.2,7.4c-4.4,5-6.7,11.9-6.8,20.9c-0.3,9.4,1.6,17.1,5.8,23
		c4.2,5.9,10.3,8.9,18.3,8.9C689.2,147.9,693.4,146.6,697,144z"/>
	<path d="M740.5,148c-6.3-7.4-9.4-17.2-9.4-29.5c0-7.7,1.5-14.7,4.5-21c3-6.3,7.3-11.2,13-14.9c5.6-3.6,12.2-5.4,19.7-5.4
		c11.8,0,20.9,3.8,27.2,11.2s9.4,18.4,9.3,32.7h-60.3c0.1,8.2,2.2,15,6.5,20.2c4.2,5.3,10.1,8,17.7,8c5.4,0,10-1.4,13.9-4.2
		c3.8-2.8,6.5-6.8,7.9-11.9l13.6,0.6c-2.9,8.1-7.1,14.3-12.7,18.7c-5.5,4.3-13.2,6.5-22.9,6.5C756.1,159.1,746.8,155.4,740.5,148z
		 M791.3,112.5c-0.1-7.5-2.2-13.6-6.2-18.4c-4-4.7-9.6-7.1-16.6-7.1c-7,0-12.6,2.4-16.7,7.2c-4.1,4.8-6.6,10.9-7.5,18.3H791.3z"/>
	<path d="M814.4,79.3h12.3v14.2h0.3c1.9-4.7,4.1-8.2,6.8-10.6c2.6-2.4,5.8-4,9.6-4.8c1.7-0.3,3.5-0.5,5.4-0.5c1,0,2.7,0.1,5.1,0.3
		l-1.7,11.8c-0.7-0.1-1.8-0.1-3.2-0.1c-2.6,0-4.9,0.3-6.8,0.9c-4.6,1.3-8.2,4.1-10.6,8.2c-3,5.1-4.5,12.5-4.5,22.2v36h-12.8V79.3z"
		/>
	<path d="M865.6,152c-5.5-4.7-8.5-11-9.1-18.7l12.9-0.6c1.3,6.1,3.6,10.4,7.1,13c3.4,2.6,8.2,3.8,14.5,3.8c5.6,0,10-1.2,13.1-3.8
		c3.1-2.5,4.7-5.6,4.7-9.3c0-3-0.9-5.4-2.7-7.1c-1.8-1.7-4.1-3-6.8-3.9c-2.8-0.8-6.5-1.7-11.2-2.6c-6.5-1.3-11.7-2.6-15.7-4
		c-4-1.4-7.3-3.6-9.9-6.6c-2.7-3-4-7.1-4-12.3c0-6.9,2.6-12.4,7.9-16.5c5.2-4.1,12.4-6.1,21.4-6.1c9.2,0,16.4,1.9,21.7,5.5
		c5.2,3.7,8.6,9.8,10,18.3l-12.6,0.5c-1.5-9.9-8-14.9-19.5-14.9c-5.1,0-9.1,1.1-11.9,3.3c-2.8,2.2-4.3,5.2-4.3,8.8
		c0,2.8,0.9,5.1,2.8,6.8c1.9,1.7,4.2,3,7,3.8c2.8,0.9,6.6,1.8,11.6,2.9c6.1,1.3,11.1,2.7,15.2,4.3c4,1.6,7.3,3.9,10,6.9
		c2.6,3.1,4,7.1,4,12.2c0,7.5-3.1,13.3-9.3,17.3c-6.2,4.1-14.2,6.1-24.2,6.1C878.7,159.1,871.1,156.8,865.6,152z"/>
</g>
</svg>
