<?xml version="1.0" encoding="utf-8"?>
<!-- Generator: Adobe Illustrator 22.0.1, SVG Export Plug-In . SVG Version: 6.00 Build 0)  -->
<svg version="1.1" id="Layer_1" xmlns="http://www.w3.org/2000/svg" xmlns:xlink="http://www.w3.org/1999/xlink" x="0px" y="0px"
	 viewBox="0 0 500 500" style="enable-background:new 0 0 500 500;" xml:space="preserve">
<g>
	<path d="M107.5,421.1c-24.7-19-37-45.9-37-80.6c0-31.3,10.3-56.4,30.8-75.5s53-31.7,97.4-38.1l49.8-8.1c20-2.9,34.2-5.2,42.5-7
		c8.3-1.7,15.9-4,22.7-7c6.3-2.4,11.2-6.1,14.7-11c3.4-4.9,7.6-12,12.5-21.2c0-44.9-26.6-67.4-79.9-67.4c-29.8,0-52.9,5.4-69.2,16.1
		c-16.4,10.7-26.7,29.6-31.1,56.4l-74.7-5.1c9.8-81.6,66.2-122.4,169.2-122.4c51.3,0,91,9.4,119.1,28.2
		c28.1,18.8,42.1,51.2,42.1,97.1v194.2c0,14.7,1,27.1,2.9,37.4c1.9,10.3,5.4,21.2,10.3,33h-74.7c-4.4-13.7-7.6-33-9.5-57.9
		c-14.2,20.5-34,36.9-59.3,49.1c-25.4,12.2-53.7,18.3-85,18.3C163.3,449.6,132.2,440.1,107.5,421.1z M301.3,374.2
		c23-15.1,35.4-36.9,37.4-65.2c1.5-12.7,2.2-33.5,2.2-62.3c-14.2,5.4-28.8,9.5-44,12.5c-15.1,2.9-32.7,5.6-52.8,8.1
		c-31.3,3.9-54.9,11.4-71.1,22.3c-16.1,11-24.2,27.2-24.2,48.7c0,18.6,6.8,33,20.5,43.2c13.7,10.3,30.5,15.4,50.6,15.4
		C251.2,396.9,278.3,389.3,301.3,374.2z"/>
</g>
</svg>
