<?xml version="1.0" encoding="utf-8"?>
<!-- Generator: Adobe Illustrator 22.1.0, SVG Export Plug-In . SVG Version: 6.00 Build 0)  -->
<svg version="1.1" id="Layer_1" xmlns="http://www.w3.org/2000/svg" xmlns:xlink="http://www.w3.org/1999/xlink" x="0px" y="0px"
	 viewBox="0 0 1051.6 227.4" style="enable-background:new 0 0 1051.6 227.4;" xml:space="preserve">
<g>
	<path d="M128.6,157V49h15.9v44.3h57.1V49h16v108h-16v-50.7h-57.1V157H128.6z"/>
	<path d="M235.7,153.2c-5.1-3.9-7.7-9.5-7.7-16.6c0-6.5,2.1-11.7,6.5-15.5c4.3-3.8,11-6.4,20-7.7l11.1-1.6c3-0.4,5.5-0.8,7.5-1.2
		c2-0.4,3.7-0.9,5.1-1.5c1.2-0.5,2.1-1.2,2.9-2.2c0.7-1,1.2-2,1.6-2.9c0.4-0.9,0.6-1.6,0.8-1.9c0-9.5-5.7-14.2-17.1-14.2
		c-6.3,0-11.2,1.2-14.5,3.4c-3.4,2.3-5.5,6.3-6.5,12l-13.9-0.8c0.9-8.8,4.4-15.2,10.4-19.2c6-4,13.9-6,23.7-6
		c10.1,0,17.9,1.9,23.6,5.8c5.6,3.9,8.4,10.4,8.4,19.6v40.4c0,2.8,0.2,5.2,0.6,7.4c0.4,2.1,1,4.4,1.8,6.8H286
		c-0.9-2.8-1.6-6.8-2-12.1c-2.8,4.2-6.8,7.6-12.1,10.3s-11,4-17.3,4C247.1,159.1,240.8,157.2,235.7,153.2z M275.2,143.8
		c4.9-3.3,7.5-8,7.8-14.1c0.3-3.9,0.4-8.1,0.4-12.6c-3.1,1.2-6.2,2.1-9.2,2.6c-3.1,0.6-6.9,1.1-11.5,1.6c-6.5,0.7-11.5,2.2-14.9,4.7
		c-3.4,2.4-5.1,5.8-5.1,10.3c0,3.9,1.4,7,4.4,9.2c2.9,2.2,6.4,3.3,10.6,3.3C264.5,148.8,270.3,147.1,275.2,143.8z"/>
	<path d="M311.2,79.3h13.6v11.6h0.3c2.7-4.4,6.2-7.7,10.4-10.1c4.2-2.3,8.9-3.4,14.2-3.4c6.5,0,11.5,1.2,14.9,3.7
		c3.4,2.5,6.2,6,8.2,10.7c3-5,6.6-8.6,10.9-11c4.2-2.3,9.2-3.4,14.9-3.4c9.2,0,15.6,2.7,19.2,8.1c3.6,5.4,5.4,12.9,5.4,22.5v49
		h-14.1v-51.3c0-5.3-1.2-9.4-3.5-12.2c-2.4-2.9-6.1-4.3-11.3-4.3c-3,0-5.8,0.6-8.5,1.9c-2.7,1.3-4.9,3.1-6.8,5.6
		c-1.6,2.1-2.8,4.9-3.5,8.3c-0.8,3.5-1.1,7-1.1,10.6V157h-14.2v-51c0-5.5-1.1-9.7-3.4-12.5s-6.1-4.3-11.5-4.3c-3,0-5.8,0.7-8.4,1.9
		c-2.6,1.3-4.9,3.2-6.8,5.7c-1.6,2.1-2.8,4.9-3.5,8.3c-0.8,3.5-1.1,7-1.1,10.6V157h-14.2V79.3z"/>
	<path d="M462.1,155.2c-4.9-2.6-8.7-6.4-11.5-11.3h-0.3V157h-13.6V49H451v41.4c2.9-4.3,6.7-7.6,11.4-9.9c4.7-2.3,9.8-3.5,15.1-3.5
		c7.3,0,13.5,1.8,18.7,5.4c5.1,3.6,9,8.5,11.6,14.6c2.6,6.1,3.9,13.1,3.9,20.8c0,12.3-2.9,22.3-8.6,29.9
		c-5.8,7.6-14.4,11.4-25.9,11.4C472,159.1,467,157.8,462.1,155.2z M490.6,140.2c4.2-4.8,6.4-11.6,6.4-20.4
		c0.3-9.2-1.6-16.7-5.5-22.4c-4-5.7-9.8-8.6-17.4-8.6c-7,0-12.6,2.8-16.8,8.2c-4.2,5.5-6.3,12.5-6.3,20.9c0,8.9,2,16,6.1,21.4
		c4.1,5.4,9.8,8.1,17,8.1C480.9,147.4,486.4,145,490.6,140.2z"/>
	<path d="M529,151.3c-4.3-5.1-6.5-12.2-6.5-21.3V79.3h14.1v48.9c0,6.3,1.4,11,4.3,14.2c2.8,3.1,7.3,4.7,13.3,4.7
		c6.4,0,11.5-2.4,15.2-7.2c3.8-4.8,5.6-11.3,5.6-19.5V79.3h14.2V157h-13.8v-11.2c-3.5,4.1-7.2,7.3-11,9.7c-3.9,2.3-8.8,3.5-14.8,3.5
		C540.3,159,533.4,156.4,529,151.3z"/>
	<path d="M603.2,79.3h13.7v14.1h0.5c1.9-4.8,4.1-8.4,6.8-10.7c2.6-2.3,5.8-3.9,9.8-4.6c1.3-0.3,2.7-0.5,4.3-0.5
		c1.3,0,3.5,0.2,6.5,0.6l-2.4,12.6c-0.8-0.1-2-0.1-3.6-0.1c-2.5,0-4.6,0.2-6.2,0.6c-4.6,1.3-8.1,4-10.3,8.1
		c-3.1,5.2-4.7,12.7-4.7,22.5V157h-14.2V79.3z"/>
	<path d="M666.1,185.5c-5.2-2.2-9.1-5.2-11.7-8.8c-2.5-3.7-3.8-7.6-3.7-11.9l14.4,0.8c1.1,4.7,3.4,8,6.9,9.8c3.5,1.8,8,2.8,13.4,2.8
		c9.3,0,15.6-2.7,18.9-8.1c3.3-5.4,5-12.8,5-22.2v-3.6c-2.8,4.4-6.6,7.8-11.3,10.2c-4.8,2.4-9.9,3.6-15.4,3.6
		c-7.4,0-13.6-1.8-18.8-5.5c-5.1-3.7-8.9-8.6-11.5-14.8c-2.5-6.2-3.8-13-3.8-20.5c0-12.1,2.9-21.8,8.6-29
		c5.7-7.2,14.3-10.9,25.7-10.9c5.4,0,10.5,1.3,15.4,4c4.8,2.7,8.6,6.4,11.3,11.2h0.3V79.3h13.6v71c0.1,12-2.7,21.4-8.5,28.3
		c-5.8,6.8-15.6,10.3-29.5,10.3C677.9,188.8,671.4,187.7,666.1,185.5z M703.1,138.5c4.2-5.4,6.3-12.3,6.3-20.5
		c0-8.7-2.1-15.8-6.2-21.1c-4.2-5.4-9.8-8.1-17-8.1c-6.8,0-12.3,2.4-16.6,7.1c-4.3,4.8-6.4,11.5-6.4,20.2
		c-0.3,9.1,1.5,16.5,5.5,22.1c4,5.7,9.8,8.5,17.5,8.5C693.3,146.7,698.9,144,703.1,138.5z"/>
	<path d="M742.8,148c-6.5-7.4-9.7-17.3-9.7-29.6c0-7.7,1.5-14.7,4.6-20.9c3-6.2,7.4-11.2,13.1-14.8s12.4-5.4,20.1-5.4
		c12.2,0,21.5,3.8,27.8,11.2c6.3,7.5,9.5,18.6,9.5,33.1H748c0.1,7.8,2.2,14.2,6.2,19.4c4,5.1,9.7,7.6,17,7.6c5.2,0,9.6-1.3,13.4-4
		c3.7-2.6,6.3-6.4,7.8-11.2l15,0.6c-3.1,8.1-7.5,14.3-13,18.6c-5.6,4.3-13.4,6.5-23.2,6.5C758.7,159.1,749.2,155.4,742.8,148z
		 M793.4,112.3c-0.2-7.4-2.2-13.3-6.1-17.8c-3.9-4.5-9.2-6.8-16.1-6.8c-6.8,0-12.2,2.3-16.1,6.9c-4,4.6-6.3,10.5-7.1,17.7H793.4z"/>
	<path d="M817.6,79.3h13.7v14.1h0.5c1.9-4.8,4.1-8.4,6.8-10.7c2.6-2.3,5.8-3.9,9.8-4.6c1.3-0.3,2.7-0.5,4.3-0.5
		c1.3,0,3.5,0.2,6.5,0.6l-2.4,12.6c-0.8-0.1-2-0.1-3.6-0.1c-2.5,0-4.6,0.2-6.2,0.6c-4.6,1.3-8.1,4-10.3,8.1
		c-3.1,5.2-4.7,12.7-4.7,22.5V157h-14.2V79.3z"/>
	<path d="M870.8,152.2c-5.5-4.6-8.7-10.9-9.5-18.7l14.4-0.8c1.3,5.8,3.6,10,6.9,12.4c3.3,2.5,8,3.8,14,3.8c5.4,0,9.6-1.2,12.8-3.6
		c3.1-2.4,4.7-5.4,4.7-9c0-2.9-0.9-5.2-2.7-6.8c-1.8-1.6-4-2.9-6.7-3.7c-2.7-0.8-6.3-1.7-11-2.6c-6.6-1.3-11.9-2.6-16-4.1
		c-4-1.4-7.4-3.6-10-6.6c-2.7-3-4-7.1-4-12.5c0-7.1,2.7-12.7,8-16.7c5.3-4,12.7-6.1,22-6.1s16.6,1.8,22,5.4
		c5.3,3.6,8.8,9.7,10.3,18.1l-14,0.8c-1.5-9.5-7.8-14.2-18.9-14.2c-5,0-8.9,1-11.5,3.1c-2.7,2.1-4.1,4.9-4.1,8.4
		c0,2.7,0.9,4.9,2.8,6.5c1.8,1.6,4.1,2.9,6.9,3.8c2.7,0.9,6.5,1.8,11.3,2.8c6.2,1.2,11.4,2.6,15.5,4.1c4.1,1.6,7.5,3.9,10.2,7
		c2.6,3.1,4,7.2,4,12.3c0,7.7-3.1,13.6-9.5,17.7c-6.3,4.1-14.5,6.1-24.6,6.1C884.1,159.1,876.3,156.8,870.8,152.2z"/>
</g>
</svg>
