<?xml version="1.0" encoding="utf-8"?>
<!-- Generator: Adobe Illustrator 22.0.1, SVG Export Plug-In . SVG Version: 6.00 Build 0)  -->
<svg version="1.1" id="Layer_1" xmlns="http://www.w3.org/2000/svg" xmlns:xlink="http://www.w3.org/1999/xlink" x="0px" y="0px"
	 viewBox="0 0 500 500" style="enable-background:new 0 0 500 500;" xml:space="preserve">
<g>
	<path d="M99.8,421.1c-25.2-19-37.7-45.9-37.7-80.6c0-31.3,10.1-56.3,30.4-75.1c20.3-18.8,52.4-31.6,96.3-38.5l46.9-8.1
		c33.7-5.4,55.7-10,65.9-13.9c5.4-1.9,10.1-4.8,14.3-8.4c4.1-3.7,7.9-7.6,11.4-11.7c3.4-4.1,5.9-7.2,7.3-9.2
		c0-21-5.9-36.9-17.6-47.6c-11.7-10.7-30.5-16.1-56.4-16.1c-28.3,0-50.1,5-65.2,15c-15.1,10-25.2,27.2-30,51.7L76.7,172
		c6.3-43.5,24.4-74.6,54.2-93.4c29.8-18.8,70.1-28.2,120.9-28.2c55.7,0,98.3,9.4,127.8,28.2c29.5,18.8,44.3,52.1,44.3,100v189
		c0,15.6,1,28.6,2.9,38.8c1.9,10.3,5.6,21.5,11,33.7h-87.2c-3.4-9.3-5.9-17.6-7.3-24.9c-1.5-7.3-2.9-17.6-4.4-30.8
		c-15.1,20-35.1,35.9-59.7,47.6c-24.7,11.7-52.9,17.6-84.6,17.6C156.6,449.6,125,440.1,99.8,421.1z M295.1,370.5
		c21-13.7,33-33,35.9-57.9c1.5-8.3,2.4-17.7,2.9-28.2c0.5-10.5,0.7-22.1,0.7-34.8c-13.2,4.9-26.5,8.7-39.9,11.4
		c-13.4,2.7-30.2,5.5-50.2,8.4c-29.3,4.4-51.5,11.7-66.7,22c-15.1,10.3-22.7,25.2-22.7,44.7c0,17.1,6.2,30.5,18.7,40.3
		c12.5,9.8,28.2,14.7,47.3,14.7C249.4,391,274.1,384.2,295.1,370.5z"/>
</g>
</svg>
