<?xml version="1.0" encoding="utf-8"?>
<!-- Generator: Adobe Illustrator 22.0.1, SVG Export Plug-In . SVG Version: 6.00 Build 0)  -->
<svg version="1.1" id="Layer_1" xmlns="http://www.w3.org/2000/svg" xmlns:xlink="http://www.w3.org/1999/xlink" x="0px" y="0px"
	 viewBox="0 0 500 500" style="enable-background:new 0 0 500 500;" xml:space="preserve">
<g>
	<path d="M95.4,420.7c-25.2-19.3-37.7-46.3-37.7-81c0-30.8,9.9-55.6,29.7-74.4c19.8-18.8,51.7-31.9,95.6-39.2
		c29.8-4.4,53.8-8.3,72.2-11.7c18.3-3.4,31.9-6.8,40.7-10.3c5.9-1.9,11-4.6,15.4-8.1c4.4-3.4,8.4-7.1,12.1-11
		c3.7-3.9,6.2-6.6,7.7-8.1c0-21-5.5-36.6-16.5-46.9c-11-10.3-29.2-15.4-54.6-15.4c-27.4,0-48.5,4.9-63.4,14.7
		c-14.9,9.8-24.5,26.4-28.9,49.8l-95.2-8.1c6.3-43.5,24.5-74.5,54.6-93c30-18.6,71.2-27.8,123.5-27.8c57.6,0,101.6,9.4,131.9,28.2
		c30.3,18.8,45.4,52.9,45.4,102.2v186.1c0,15.6,1.1,28.6,3.3,38.8c2.2,10.3,6,21.7,11.4,34.4h-94.5c-3.4-8.8-5.9-16.9-7.3-24.2
		c-1.5-7.3-2.9-17.3-4.4-30c-16.1,20-36.4,35.7-60.8,46.9c-24.4,11.2-52.5,16.9-84.3,16.9C152.4,449.6,120.6,440,95.4,420.7z
		 M291.4,368.7c20.5-12.9,32.2-30.9,35.2-53.8c2.9-14.7,4.4-36.1,4.4-64.5c-21.5,8.3-50.3,15.1-86.5,20.5
		c-28.3,4.4-49.8,11.5-64.5,21.2c-14.7,9.8-22,24.2-22,43.2c0,16.6,5.9,29.6,17.6,38.8c11.7,9.3,27.1,13.9,46.2,13.9
		C247.7,388.1,270.9,381.6,291.4,368.7z"/>
</g>
</svg>
