<?xml version="1.0" encoding="utf-8"?>
<!-- Generator: Adobe Illustrator 22.0.1, SVG Export Plug-In . SVG Version: 6.00 Build 0)  -->
<svg version="1.1" id="Layer_1" xmlns="http://www.w3.org/2000/svg" xmlns:xlink="http://www.w3.org/1999/xlink" x="0px" y="0px"
	 viewBox="0 0 500 500" style="enable-background:new 0 0 500 500;" xml:space="preserve">
<g>
	<path d="M91.4,420.7c-25.2-19.3-37.7-46.3-37.7-81c0-30.8,9.8-55.6,29.3-74.4c19.5-18.8,51.3-31.9,95.2-39.2
		c28.8-4.4,52.4-8.4,70.7-12.1c18.3-3.7,31.9-7,40.7-9.9c8.3-2.9,16.2-7.4,23.8-13.6c7.6-6.1,12.3-10.1,14.3-12.1
		c0-20.5-5.3-35.6-15.8-45.4c-10.5-9.8-28-14.7-52.4-14.7c-26.9,0-47.4,4.5-61.5,13.6c-14.2,9-23.7,24.8-28.6,47.3l-101.8-8.8
		C74.4,127,93,96.1,123.3,77.8c30.3-18.3,72-27.5,125.3-27.5c59.6,0,104.9,9.4,135.9,28.2c31,18.8,46.5,53.4,46.5,103.7v183.2
		c0,16.1,1.1,29.2,3.3,39.2c2.2,10,6.2,21.9,12.1,35.5H345.2c-3.9-8.8-6.6-16.7-8.1-23.8c-1.5-7.1-2.9-16.7-4.4-28.9
		c-34.2,41.5-82.5,62.3-145.1,62.3C148.6,449.6,116.5,440,91.4,420.7z M288.5,366.9c19.3-12.2,30.6-29.1,34.1-50.6
		c1.9-8.3,3.3-17,4-26c0.7-9,1.1-21.9,1.1-38.5c-20.5,7.8-48.1,14.4-82.8,19.8c-27.8,4.9-48.8,12-63,21.2c-14.2,9.3-21.2,23-21.2,41
		c0,15.6,5.7,28.1,17.2,37.4c11.5,9.3,26.2,13.9,44.3,13.9C247.1,385.2,269.2,379.1,288.5,366.9z"/>
</g>
</svg>
