<?xml version="1.0" encoding="utf-8"?>
<!-- Generator: Adobe Illustrator 22.0.1, SVG Export Plug-In . SVG Version: 6.00 Build 0)  -->
<svg version="1.1" id="Layer_1" xmlns="http://www.w3.org/2000/svg" xmlns:xlink="http://www.w3.org/1999/xlink" x="0px" y="0px"
	 viewBox="0 0 500 500" style="enable-background:new 0 0 500 500;" xml:space="preserve">
<g>
	<path d="M87.7,420.3c-25.6-19.5-38.5-46.4-38.5-80.6c0-30.8,9.6-55.4,28.9-74c19.3-18.6,50.9-31.7,94.9-39.6
		c59.6-9.8,96.5-17.1,110.6-22c8.3-2.4,16.5-6.6,24.5-12.5c8.1-5.9,13.6-9.8,16.5-11.7c0-20-5-34.8-15-44.3
		c-10-9.5-26.7-14.3-50.2-14.3c-25.9,0-45.7,4.4-59.3,13.2c-13.7,8.8-23,23.9-27.8,45.4l-109.2-9.5c7.3-44.4,26.2-75.6,56.8-93.4
		c30.5-17.8,72.9-26.7,127.1-26.7c62,0,108.9,9.5,140.7,28.6c31.7,19,47.6,54,47.6,104.8v181c0,16.6,1,29.9,2.9,39.9
		c1.9,10,6.1,21.9,12.5,35.5h-107c-4.4-8.8-7.3-16.5-8.8-23.1c-1.5-6.6-3.2-16.2-5.1-28.9c-34.7,41-83,61.5-145.1,61.5
		C145.7,449.6,113.4,439.9,87.7,420.3z M285.2,365c18.6-11.5,29.8-27,33.7-46.5c2.4-8.3,4-17,4.8-26c0.7-9,1.1-22.1,1.1-39.2
		c-19,6.8-45.7,13.4-79.9,19.8c-26.4,4.9-46.4,11.8-60.1,20.9c-13.7,9-20.5,22.1-20.5,39.2c0,15.1,5.4,27.1,16.1,35.9
		c10.7,8.8,24.9,13.2,42.5,13.2C245.8,382.2,266.6,376.5,285.2,365z"/>
</g>
</svg>
