<?xml version="1.0" encoding="utf-8"?>
<!-- Generator: Adobe Illustrator 22.0.1, SVG Export Plug-In . SVG Version: 6.00 Build 0)  -->
<svg version="1.1" id="Layer_1" xmlns="http://www.w3.org/2000/svg" xmlns:xlink="http://www.w3.org/1999/xlink" x="0px" y="0px"
	 viewBox="0 0 500 500" style="enable-background:new 0 0 500 500;" xml:space="preserve">
<g>
	<path d="M83.3,420.3c-25.6-19.5-38.5-46.4-38.5-80.6c0-30.8,9.5-55.4,28.6-74c19-18.6,50.6-31.7,94.5-39.6
		c58.6-10.3,95.2-17.8,109.9-22.7c8.3-2.4,16.9-6.3,25.6-11.7c8.8-5.4,14.7-9,17.6-11c0-19.5-4.8-33.7-14.3-42.5
		s-25.3-13.2-47.3-13.2c-25.9,0-45.3,4.2-58.2,12.5c-12.9,8.3-22.1,22.7-27.5,43.2L58,169.8c7.8-44.4,27.1-75.5,57.9-93
		c30.8-17.6,73.7-26.4,128.9-26.4c42,0,77,3.8,105.1,11.4c28.1,7.6,49.8,21.1,65.2,40.7c15.4,19.5,23.1,47.1,23.1,82.8v178
		c0,16.6,1.1,30,3.3,40.3c2.2,10.3,6.7,22.5,13.6,36.6H340.8c-4.4-9.3-7.3-17.1-8.8-23.4c-1.5-6.3-3.2-15.4-5.1-27.1
		c-17.6,19.5-38.2,34.4-61.9,44.7c-23.7,10.3-51.7,15.4-83.9,15.4C141.6,449.6,109,439.9,83.3,420.3z M281.5,362.8
		c17.6-10.5,28.6-24.5,33-42.1c2.9-8.3,4.8-17,5.5-26c0.7-9,1.1-22.3,1.1-39.9c-17.6,6.4-43,12.7-76.2,19
		c-25.9,5.4-45.4,12.3-58.6,20.9c-13.2,8.6-19.8,21.1-19.8,37.7c0,14.2,5.1,25.4,15.4,33.7c10.3,8.3,23.9,12.5,41,12.5
		C244.4,378.6,263.9,373.3,281.5,362.8z"/>
</g>
</svg>
